<?xml version="1.0" standalone="no"?>
<!DOCTYPE svg PUBLIC "-//W3C//DTD SVG 20010904//EN"
 "http://www.w3.org/TR/2001/REC-SVG-20010904/DTD/svg10.dtd">
<svg version="1.0" xmlns="http://www.w3.org/2000/svg"
 width="512.000000pt" height="512.000000pt" viewBox="0 0 512.000000 512.000000"
 preserveAspectRatio="xMidYMid meet">
<metadata>
Created by potrace 1.11, written by Peter Selinger 2001-2013
</metadata>
<g transform="translate(0.000000,512.000000) scale(0.100000,-0.100000)"
fill="#000000" stroke="none">
<path d="M4026 4412 c-2 -2 -24 -5 -47 -6 -24 -2 -63 -9 -87 -15 -23 -7 -47
-9 -52 -6 -6 3 -10 2 -10 -3 0 -5 -21 -13 -47 -18 -27 -4 -50 -8 -53 -9 -32
-8 -79 -19 -95 -21 -11 -1 -42 -8 -70 -14 -27 -6 -59 -13 -69 -16 -11 -2 -73
-15 -139 -30 -65 -14 -131 -28 -146 -30 -14 -3 -44 -10 -65 -15 -44 -12 -163
-37 -216 -45 -19 -4 -37 -9 -40 -13 -3 -3 -18 -7 -35 -8 -53 -4 -65 -7 -65
-15 0 -4 -7 -5 -15 -2 -8 3 -20 2 -27 -2 -7 -4 -21 -9 -33 -10 -11 -1 -33 -5
-50 -9 -16 -4 -34 -7 -40 -7 -5 0 -68 24 -140 54 -71 31 -159 66 -195 78 -75
25 -87 29 -98 31 -4 1 -32 10 -62 21 -63 21 -98 30 -122 30 -10 -1 -18 2 -18
6 0 4 -15 8 -33 9 -44 3 -59 7 -76 17 -11 7 -12 6 -6 -5 7 -11 6 -12 -6 -2 -8
6 -37 13 -64 14 -28 1 -56 6 -62 12 -8 5 -13 5 -13 0 0 -5 -27 -8 -60 -6 -33
1 -78 -4 -100 -12 -22 -8 -40 -11 -40 -7 0 3 -7 -4 -16 -16 -8 -12 -13 -26
-10 -31 4 -5 0 -12 -6 -14 -10 -4 -10 -6 0 -6 6 -1 12 -6 12 -12 0 -7 31 -41
69 -78 38 -36 113 -109 167 -161 l99 -94 -55 -13 c-30 -7 -66 -14 -80 -17 -14
-2 -47 -9 -75 -16 -27 -6 -59 -13 -70 -16 -11 -2 -85 -18 -165 -35 -80 -17
-161 -35 -181 -39 -19 -3 -40 -9 -45 -13 -6 -3 -23 -8 -39 -11 -16 -3 -32 -11
-37 -18 -4 -7 -8 -9 -8 -4 0 5 -7 3 -15 -4 -8 -7 -15 -10 -15 -6 0 4 -11 -1
-25 -10 -14 -9 -25 -13 -25 -8 0 4 -5 3 -12 -4 -7 -7 -21 -12 -32 -12 -10 0
-17 3 -13 6 3 3 -15 25 -40 48 -25 22 -56 50 -67 61 -12 11 -48 43 -81 70 -33
28 -65 55 -71 60 -6 6 -23 19 -38 30 -15 11 -38 29 -50 40 -49 42 -66 55 -66
47 0 -4 -4 -2 -8 3 -12 17 -145 100 -202 127 -67 31 -132 43 -157 29 -10 -6
-13 -11 -8 -11 6 0 4 -4 -3 -9 -7 -4 -13 -21 -13 -37 1 -31 7 -79 11 -79 2 0
9 -52 12 -82 1 -7 4 -13 8 -13 3 0 6 -10 7 -22 1 -13 4 -34 8 -48 3 -14 8 -36
11 -50 3 -14 11 -52 19 -85 7 -33 11 -63 9 -67 -3 -5 0 -8 6 -8 6 0 9 -4 5 -9
-3 -5 -1 -12 5 -16 6 -4 8 -10 6 -14 -3 -4 1 -32 9 -61 8 -30 12 -56 10 -58
-2 -3 2 -17 10 -32 8 -15 12 -29 10 -32 -3 -2 0 -22 6 -44 6 -21 13 -48 15
-59 2 -11 8 -40 14 -65 6 -25 12 -56 14 -70 2 -14 5 -25 6 -25 3 0 8 -27 15
-70 12 -74 15 -83 41 -114 25 -30 25 -31 9 -68 -10 -21 -21 -47 -25 -58 -5
-11 -20 -46 -34 -78 -14 -32 -26 -60 -26 -62 0 -2 -11 -29 -25 -59 -14 -30
-25 -62 -25 -70 0 -9 -4 -16 -9 -16 -5 0 -12 -7 -15 -16 -4 -10 -2 -13 7 -8 6
4 3 -2 -7 -14 -11 -12 -16 -22 -12 -22 4 0 3 -8 -2 -17 -7 -12 -5 -24 5 -39
33 -51 166 3 282 114 19 17 38 32 43 32 4 0 8 6 8 14 0 8 9 18 20 21 11 3 20
10 20 14 0 5 19 28 41 52 23 24 55 63 72 87 31 43 33 43 77 38 79 -10 143 -16
200 -19 30 -1 61 -6 68 -10 7 -5 12 -3 12 3 0 6 5 8 12 4 13 -8 408 -12 408
-4 0 3 35 6 78 7 46 1 154 18 266 43 104 22 199 42 212 44 13 3 28 7 34 11 11
7 -14 -61 -70 -190 -8 -16 -13 -33 -12 -37 1 -5 -2 -8 -6 -8 -5 0 -9 -6 -10
-12 -1 -23 -27 -85 -42 -104 -12 -15 -13 -16 -1 -9 11 6 10 2 -2 -16 -9 -13
-17 -31 -17 -41 0 -10 -4 -18 -8 -18 -5 0 -9 -6 -9 -12 -1 -23 -8 -42 -20 -56
-7 -7 -13 -21 -13 -30 0 -10 -8 -29 -17 -42 -10 -14 -16 -26 -14 -28 4 -4 -40
-114 -51 -126 -4 -6 -8 -25 -8 -44 0 -41 30 -73 63 -66 66 12 86 18 130 37 26
12 47 26 47 30 0 5 4 6 9 3 4 -3 19 3 31 14 12 11 27 17 31 14 5 -3 9 -1 9 3
0 5 15 17 33 28 32 19 109 74 136 98 8 6 26 20 40 29 14 10 22 18 17 18 -5 0
9 13 30 29 21 16 68 56 103 90 34 33 66 61 69 61 3 0 23 -12 45 -27 54 -37
139 -44 200 -14 63 30 94 64 114 122 27 76 6 163 -52 222 -15 15 -24 27 -19
27 6 0 18 14 28 31 10 18 25 39 33 48 34 38 63 77 63 83 0 5 9 18 19 30 11 13
28 33 38 45 10 12 32 24 48 27 17 2 30 5 30 6 0 1 9 3 20 5 50 7 101 17 106
21 3 2 19 6 35 8 16 3 39 8 52 11 42 9 67 15 102 22 46 9 50 10 53 12 1 2 13
4 27 7 14 2 86 17 160 33 74 17 147 32 162 35 15 2 33 8 39 12 9 5 10 0 5 -17
-27 -89 -14 -172 34 -226 133 -148 369 -61 373 138 1 44 -5 66 -26 101 -14 24
-33 51 -42 58 -14 12 -3 18 82 47 54 18 103 35 108 37 6 2 20 7 33 11 12 4 22
12 22 17 0 5 5 6 11 3 5 -4 19 1 30 11 10 9 19 14 19 11 0 -8 88 40 111 59 9
8 18 12 21 9 3 -3 11 1 18 10 7 8 17 15 22 15 9 0 62 35 86 58 7 6 17 12 21
12 24 0 167 162 176 200 1 3 7 17 12 31 18 42 -3 159 -28 159 -5 0 -9 5 -9 12
0 43 -199 163 -345 208 -38 12 -77 24 -85 26 -8 3 -16 5 -17 5 -2 0 -17 5 -35
10 -18 5 -53 12 -78 15 -25 3 -56 8 -70 11 -14 3 -42 6 -62 6 -21 1 -38 4 -38
7 0 6 -169 8 -174 2z"/>
<path d="M3211 1855 c-1 -7 -542 -9 -1606 -8 l-1605 2 0 -925 0 -924 2560 0
2560 0 0 924 0 925 -950 -2 c-626 -1 -951 1 -954 8 -3 7 -5 7 -5 0z"/>
</g>
</svg>
